<?xml version="1.0" standalone="no"?>
<!DOCTYPE svg PUBLIC "-//W3C//DTD SVG 1.1//EN" "http://www.w3.org/Graphics/SVG/1.1/DTD/svg11.dtd" >
<svg xmlns="http://www.w3.org/2000/svg">
<metadata>
Created by FontForge 20120731 at Mon Mar 16 11:41:07 2015
 By Ads
</metadata>
<defs>
<font id="jc-iconfont" horiz-adv-x="1024" >
  <font-face 
    font-family="jc-iconfont"
    font-weight="500"
    font-stretch="normal"
    units-per-em="1024"
    panose-1="2 0 6 3 0 0 0 0 0 0"
    ascent="812"
    descent="-212"
    x-height="792"
    bbox="0 -224 1024 815"
    underline-thickness="50"
    underline-position="-100"
    unicode-range="U+0078-E626"
  />
<missing-glyph horiz-adv-x="374" 
d="M34 0v682h272v-682h-272zM68 34h204v614h-204v-614z" />
    <glyph glyph-name=".notdef" horiz-adv-x="374" 
d="M34 0v682h272v-682h-272zM68 34h204v614h-204v-614z" />
    <glyph glyph-name=".null" horiz-adv-x="0" 
 />
    <glyph glyph-name="nonmarkingreturn" horiz-adv-x="341" 
 />
    <glyph glyph-name="x" unicode="x" horiz-adv-x="1001" 
d="M281 543q-27 -1 -53 -1h-83q-18 0 -36.5 -6t-32.5 -18.5t-23 -32t-9 -45.5v-76h912v41q0 16 -0.5 30t-0.5 18q0 13 -5 29t-17 29.5t-31.5 22.5t-49.5 9h-133v-97h-438v97zM955 310v-52q0 -23 0.5 -52t0.5 -58t-10.5 -47.5t-26 -30t-33 -16t-31.5 -4.5q-14 -1 -29.5 -0.5
t-29.5 0.5h-32l-45 128h-439l-44 -128h-29h-34q-20 0 -45 1q-25 0 -41 9.5t-25.5 23t-13.5 29.5t-4 30v167h911zM163 247q-12 0 -21 -8.5t-9 -21.5t9 -21.5t21 -8.5q13 0 22 8.5t9 21.5t-9 21.5t-22 8.5zM316 123q-8 -26 -14 -48q-5 -19 -10.5 -37t-7.5 -25t-3 -15t1 -14.5
t9.5 -10.5t21.5 -4h37h67h81h80h64h36q23 0 34 12t2 38q-5 13 -9.5 30.5t-9.5 34.5q-5 19 -11 39h-368zM336 498v228q0 11 2.5 23t10 21.5t20.5 15.5t34 6h188q31 0 51.5 -14.5t20.5 -52.5v-227h-327z" />
    <glyph glyph-name="uniE600" unicode="&#xe600;" 
d="M347 -82q-12 1 -19 7q-8 7 -8 17t8 17l376 343l-376 343q-8 7 -8 17t8 17q2 1 4 2.5t4.5 2.5t5 1.5t5 0.5t5 -0.5t5 -1.5t4.5 -2.5t4 -2.5l395 -360q7 -7 7 -17t-7 -17l-395 -360q-4 -3 -8.5 -5t-9.5 -2z" />
    <glyph glyph-name="uniE601" unicode="&#xe601;" 
d="M959 289q0 -73 -22.5 -141.5t-64 -123.5t-96.5 -96.5t-123.5 -64t-141.5 -22.5t-141.5 22.5t-123.5 64t-96.5 96.5t-64 123.5t-22.5 141.5q0 91 35.5 174t95.5 143t143 95.5t174 35.5t174 -35.5t143 -95.5t95.5 -143t35.5 -174zM512 707q-114 0 -210 -56t-152 -152
t-56 -209.5t56 -209.5t152 -152t209.5 -56t209.5 56t152 152t56 210q0 84 -33 161.5t-89 133.5t-133 89t-162 33z" />
    <glyph glyph-name="uniE602" unicode="&#xe602;" 
d="M512 -155q-90 0 -172 35t-141.5 94.5t-94.5 141.5t-35 172t35 172t94.5 141.5t141.5 94.5t172 35q45 0 89 -9t83.5 -26t75 -41t65.5 -54t54 -65.5t41 -75t26 -83.5t9 -89q0 -72 -22.5 -139.5t-63.5 -122t-95.5 -95.5t-122 -63.5t-139.5 -22.5zM760 418l-31 30q-5 5 -11 8
t-13 4t-13.5 0t-13 -4t-11.5 -8l-217 -213l-93 92q-13 12 -31.5 12t-30.5 -12l-31 -31q-9 -8 -12 -19t0 -22t12 -20l124 -121l31 -31q13 -12 31 -12t31 12l279 274q13 13 13 30.5t-13 30.5z" />
    <glyph glyph-name="uniE603" unicode="&#xe603;" 
d="M512 747q-91 0 -174 -35.5t-143 -95t-95.5 -142.5t-35.5 -174q0 -73 23 -141.5t64 -123.5t96 -96t123.5 -63.5t141.5 -22.5q91 0 174 35t142.5 95t95 143t35.5 174q0 73 -22.5 141t-64 123t-96.5 96.5t-123 64t-141 22.5zM784 277l-264 -248l-280 248v197l280 -243
l264 243v-197z" />
    <glyph glyph-name="uniE604" unicode="&#xe604;" 
d="M303 86l118 -76v256l-118 76v-256zM570 390q-2 2 -3 2l-142 -16l39 -93l106 12v95zM596 383v-85l111 13zM366 401l-92 44l27 -64q1 -1 1.5 -2t0.5 -2v-1v-2l104 -67zM608 407l125 -81l61 99l-137 60zM465 255v-261l258 30v262l-257 -29v-1zM514 770q-98 0 -187.5 -38
t-154 -102.5t-103 -154t-38.5 -187.5q0 -79 24.5 -152.5t69 -132.5t104 -104t133 -69t152.5 -24q98 0 187 38t153.5 102.5t103 154t38.5 187.5t-38.5 187.5t-103 154t-153.5 102.5t-187 38zM845 423l-78 -127v-292q0 -5 -2.5 -10t-7 -8t-10.5 -4l-302 -35h-2q-3 0 -6 1h-1
q-3 1 -5 3l-162 105q-4 3 -7 7.5t-3 10.5v294l-49 114q-6 14 5 24q5 5 12 6t13 -2l153 -73q3 -1 6 -4t4 -7l11 -25l150 17v1l65 105q10 16 28 8l178 -77q9 -4 12 -14q1 -3 1 -6t-0.5 -6t-2.5 -6z" />
    <glyph glyph-name="uniE605" unicode="&#xe605;" 
d="M722 -152l-453 451l451 453l33 -33l-419 -420l421 -418z" />
    <glyph glyph-name="uniE606" unicode="&#xe606;" 
d="M128 599h768q18 0 30.5 -12.5t12.5 -30.5t-12.5 -30.5t-30.5 -12.5h-768q-18 0 -30.5 12.5t-12.5 30.5t12.5 30.5t30.5 12.5zM128 87h768q18 0 30.5 -12.5t12.5 -30.5t-12.5 -30.5t-30.5 -12.5h-768q-18 0 -30.5 12.5t-12.5 30.5t12.5 30.5t30.5 12.5zM128 343h768
q18 0 30.5 -12.5t12.5 -30.5t-12.5 -30.5t-30.5 -12.5h-768q-18 0 -30.5 12.5t-12.5 30.5t12.5 30.5t30.5 12.5z" />
    <glyph glyph-name="uniE607" unicode="&#xe607;" 
d="M941 427q0 107 -73.5 183.5t-176.5 76.5q-51 0 -97.5 -21t-81.5 -59q-74 80 -179 80q-104 0 -177 -76.5t-73 -183.5v-6q0 -3 1 -7q-1 -2 -1 -3q0 -38 19 -83q0 -1 0.5 -1.5t0.5 -1.5q20 -49 64.5 -106t87 -100t98 -90.5t79.5 -66t49 -36.5l4 -4q6 -4 12.5 -6.5t13.5 -2.5
q5 0 9.5 1t9 3.5t8.5 5.5l4 3q30 22 60.5 46.5t92.5 77.5t116.5 114.5t86.5 116.5q4 6 9 17l1 1l2 3v1l1 2q9 17 14 32q16 41 16 74v4v12z" />
    <glyph glyph-name="uniE608" unicode="&#xe608;" 
d="M473 526l378 1q12 0 17 11q3 5 2.5 10.5t-3.5 9.5l-119 175q-3 3 -6 5.5t-7 2.5q-8 1 -15 -3l-258 -176q-12 -8 -8 -22t19 -14zM944 539q-13 3 -24.5 -4t-14.5 -20l-9 -40h-604l-18 82q-1 5 -4 10t-7 8.5t-9.5 5.5t-11.5 2h-151q-13 0 -22.5 -10t-9.5 -23.5t9.5 -23
t22.5 -9.5h125l84 -398q2 -6 5 -11t7 -8t9.5 -5t11.5 -2h515q7 0 14 3t11.5 9t6.5 13l89 382q2 6 0.5 12.5t-4.5 12t-8.5 9.5t-12.5 5zM359 158l-53 251h24v-1l1 -1l169 -249h-141zM822 158h-284l337 230zM432 13q-30 0 -51.5 -21.5t-21.5 -51.5q0 -20 9.5 -37t26.5 -27
t37 -10t37 10t27 27t10 37q0 43 -39 64q-17 9 -35 9zM748 13q-31 0 -52.5 -21.5t-21.5 -51.5q0 -15 6 -28.5t15.5 -23.5t23.5 -16t29 -6q30 0 51.5 21.5t21.5 52.5q0 43 -38 64q-17 9 -35 9z" />
    <glyph glyph-name="uniE609" unicode="&#xe609;" 
d="M966 482l-164 244q-3 4 -7.5 7t-9.5 5t-10 2h-525q-17 0 -27 -14l-164 -244q-4 -6 -5 -12.5t0.5 -13t5.5 -11.5l427 -557q10 -12 26 -12q7 0 13.5 3t11.5 9l427 557q14 18 1 37zM640 445l-127 -465l-128 465h255zM395 483l118 188l117 -188h-235zM555 676h185l-78 -171z
M363 505l-78 171h185zM459 30l-318 415h205zM679 445h205l-318 -415zM888 483h-193l77 172zM253 655l78 -172h-194z" />
    <glyph glyph-name="uniE60A" unicode="&#xe60a;" 
d="M745 693q-87 17 -145 47.5t-73 52.5l-15 22q-3 -3 -7.5 -6.5t-19 -14t-30 -21t-38 -23.5t-43.5 -23.5t-46.5 -20t-47.5 -13.5q-111 -22 -221 -11q0 -6 0.5 -16.5t1.5 -43.5t2 -67t2 -82.5t2 -94t2 -97.5t1 -98q0 -148 252 -302q99 -60 190 -96q9 4 25 11t62 30t88 48
t93 62t88 74t62 83t25 90q0 222 11 499q-111 -11 -221 11zM900 200q0 -128 -233 -264q-82 -48 -155 -78q-8 3 -22 9t-54.5 25.5t-77 40.5t-81.5 52.5t-77 63.5t-54 72t-22 79q0 84 -3 197.5t-4.5 158t-2.5 71.5q11 -1 29.5 -2.5t70 1t94.5 11t94 34.5t80 48l30 21
q0 -1 1.5 -3.5t8.5 -10.5t16 -16t25.5 -18.5t37 -20t50.5 -19t65 -16.5q43 -8 91.5 -10.5t75.5 -0.5l27 2q-10 -238 -10 -427zM417 491l-82 29q-5 -14 -11 -28t-14 -29q-13 -25 -34 -57q-11 -16 -23.5 -32t-27.5 -32l20 -16q9 -7 14 -11q6 -5 6 -4l9 6l1 1q3 3 9 8v-210h79
v291q5 6 9 11l8 12q4 5 7.5 10t6.5 10t5.5 9t4.5 8q8 13 13 24zM694 237q-10 9 -18.5 18.5t-15.5 19.5h107v36h-143v49h63q32 0 42.5 14.5t10.5 40.5v38q0 22 -8 35q-2 3 -5 5.5t-7 5t-9 4t-12 3.5q-12 2 -30.5 2.5t-41.5 -1.5q-48 -3 -127 -12v9h-78v-152h78v8h42v-49h-147
v-36h75q-2 -10 -6.5 -25t-13 -32t-22 -34.5t-33.5 -33.5l31 -29q14 10 25.5 20t21.5 19.5t18.5 18.5t15.5 17q14 18 22 33t13 27v-140h82v140q3 -6 7 -12.5t8 -14.5q9 -15 22 -32q7 -8 14.5 -17t16.5 -17.5t19.5 -17.5t22.5 -18l47 54q-8 4 -16 8.5t-15.5 9t-15.5 8.5
q-19 13 -40 30zM500 395v67q10 1 20 2.5t20 2.5q18 3 40 5t44 2q5 0 9.5 -0.5t8 -1t6 -1.5t4.5 -2.5t3 -2.5q7 -8 7 -21v-22q0 -4 -1 -7.5t-3 -7.5q-4 -5 -11 -9t-23 -4h-124z" />
    <glyph glyph-name="uniE60B" unicode="&#xe60b;" 
d="M142 -97q-5 0 -9.5 2t-8.5 5q-5 5 -6.5 12t0 13.5t6.5 11.5l737 736q4 4 8.5 6t9.5 2t10 -2t8 -6q8 -7 8 -17.5t-8 -18.5l-737 -737q-7 -7 -18 -7zM879 -97q-3 0 -5 0.5t-4.5 1.5t-4.5 2.5t-4 2.5l-737 737q-8 8 -8 18.5t7.5 18t18 7.5t18.5 -8l737 -736q8 -8 8 -18.5
t-7.5 -18t-18.5 -7.5z" />
    <glyph glyph-name="uniE60C" unicode="&#xe60c;" 
d="M829 688l-7 10h-610l-7 -9q-55 -70 -86 -133t-36.5 -109.5t-1.5 -76.5t16 -55q10 -20 25 -37t33 -28.5t38.5 -18t41.5 -6.5h5q86 4 145 65q10 -11 21.5 -20.5t28 -19.5t38 -15.5t45.5 -5.5q17 0 33 3t29 8t24 11t20.5 14t16.5 14.5t13 13.5q31 -26 71 -46t82 -20
q61 0 104 50q25 30 31.5 72t-4 88t-25 86.5t-36.5 80.5t-31.5 56.5t-16.5 27.5zM875 308q-10 -11 -20.5 -18.5t-22.5 -11t-26 -3.5q-27 0 -59 15.5t-48.5 28t-28.5 24.5v163v1q0 10 -7 17t-17 7q-5 0 -9.5 -1.5t-7.5 -5t-5 -8t-2 -9.5v-177q-39 -53 -104 -53q-22 0 -42 6.5
t-33 17.5t-20 19t-12 15v172q0 10 -7 17t-17 7q-7 0 -12.5 -3t-8.5 -8.5t-3 -12.5v-171q-4 -5 -8.5 -10t-13 -12.5t-18.5 -14t-22.5 -12.5t-28.5 -9.5t-34 -4.5h-3q-26 0 -53 16t-42 47q-9 20 -12 44.5t2 63t32 92.5t73 115h561q17 -27 34 -59t34 -74t26 -79t6 -73t-21 -58z
M831.5 198q-6.5 0 -12 -3t-9 -8.5t-3.5 -12.5v0v-174q0 -9 -3.5 -18t-10 -15.5t-15.5 -10.5t-19 -4h-207h-288q-20 0 -34 14t-14 34v174q0 4 -1.5 7.5t-3.5 6.5t-5 5.5t-6.5 3.5t-7.5 1t-8 -1t-6.5 -3.5t-5 -5.5t-3.5 -6.5t-1 -7.5v-178q0 -25 12 -46.5t33 -33.5t46 -12h505
q38 0 64.5 27t26.5 65v178q0 7 -3 12.5t-8.5 8.5t-12 3z" />
    <glyph glyph-name="uniE60D" unicode="&#xe60d;" 
d="M514 796l168 -309l342 -66l-238 -257l43 -350l-315 150l-315 -150l43 350l-238 257l342 66z" />
    <glyph glyph-name="uniE60E" unicode="&#xe60e;" 
d="M693 465q15 0 35 -2q-23 109 -127.5 181.5t-238.5 72.5q-58 0 -113.5 -15.5t-100 -43.5t-78 -66t-52 -85t-18.5 -98q0 -143 145 -245l-36 -109l127 64q6 -2 25 -5.5t27 -5t22.5 -4t26.5 -3t25 -0.5q16 0 34 1q-5 19 -8 38t-3 38q0 119 89.5 203t218.5 84zM498 563
q21 0 33.5 -12.5t12.5 -32.5q0 -14 -6 -24t-16 -16t-24 -6q-21 0 -37.5 13t-16.5 32.5t16.5 32.5t37.5 13zM245 472q-14 0 -26.5 6t-20.5 16.5t-8 23.5t8 23.5t20.5 16t26.5 5.5q20 0 32.5 -12.5t12.5 -33t-12.5 -33t-32.5 -12.5zM1024 182q0 71 -43 132t-113.5 96
t-151.5 35q-129 0 -218.5 -77t-89.5 -186t89.5 -186t218.5 -77q37 0 109 18l99 -54l-27 90q127 96 127 209zM616 228q-13 0 -24.5 11t-11.5 25q0 9 5 17.5t13.5 13.5t17.5 5q20 0 33 -11t13 -25q0 -7 -3.5 -13.5t-9.5 -11.5t-14.5 -8t-18.5 -3zM815 228q-8 0 -16.5 5
t-14 13.5t-5.5 17.5q0 13 11.5 24.5t24.5 11.5q20 0 33 -11t13 -25q0 -7 -3.5 -13.5t-9 -11.5t-14.5 -8t-19 -3z" />
    <glyph glyph-name="uniE60F" unicode="&#xe60f;" 
d="M917 -83l-279 279q36 42 55.5 93.5t19.5 107.5q0 42 -10.5 81t-31 74t-49.5 65q-44 43 -100.5 66.5t-118.5 23.5q-42 0 -81 -10.5t-74 -30.5t-65 -49q-90 -91 -90 -219.5t90.5 -219.5t219.5 -91q104 0 187 63l281 -280zM122 397.5q0 116.5 82 199t199 82.5q45 0 88 -14.5
t77.5 -40.5t60.5 -60.5t40.5 -77.5t14.5 -89q0 -57 -22.5 -109t-60 -89.5t-89.5 -60t-109 -22.5q-117 0 -199 82.5t-82 199z" />
    <glyph glyph-name="uniE610" unicode="&#xe610;" 
d="M914 342q12 0 22 -5.5t16 -15t6 -20.5q0 -16 -13 -28t-31 -12h-802q-19 0 -32 12t-13 28.5t13 28.5t32 12h802z" />
    <glyph glyph-name="uniE611" unicode="&#xe611;" 
d="M544 684h-64v-352h-352v-64h352v-352h64v352h352v64h-352v352z" />
    <glyph glyph-name="uniE612" unicode="&#xe612;" 
d="M529 683h-29q-76 0 -154.5 -28t-141 -73.5t-102.5 -110t-40 -133.5v-79q0 -29 12.5 -62.5t27 -56.5t26.5 -41.5t12 -21.5q0 -50 -49 -126q-3 -8 -5 -12t-2 -4.5t-1 -3t-4 -7.5t-9 -16l21 4q26 3 95 21t92 18h14q31 0 99.5 -18t116.5 -18q68 0 134.5 17.5t123.5 51.5
t100.5 79.5t68.5 105.5t25 126v22q0 73 -38.5 141.5t-99.5 117t-138.5 78t-154.5 29.5zM579 -49h-107q-30 0 -58.5 7t-55 16t-44.5 12h-36q-25 -4 -82.5 -19t-61.5 -16q3 10 19.5 48t16.5 67v7q0 13 -12.5 34.5t-27 43t-27 59t-12.5 78.5v36q0 68 38 130.5t98.5 105.5
t136 68.5t151 25.5t150.5 -26.5t134 -72t95.5 -110.5t36.5 -135q0 -139 -116 -245q-100 -90 -236 -114zM515 367h-15q-13 0 -25 -5t-20.5 -14t-13.5 -20.5t-5 -25.5v-14q0 -12 5.5 -25t15 -23t21 -17t22.5 -7q38 0 62 22t24 57q0 27 -22 49.5t-49 22.5zM551 281
q0 -13 -8.5 -21t-20.5 -8h-22q-12 0 -24 12t-12 24q0 50 51 50q12 0 24 -11.5t12 -24.5v-21zM299 367h-14q-10 0 -19.5 -3t-17.5 -8.5t-14.5 -12.5t-11 -16t-7 -19t-2.5 -20q0 -13 7 -26t18 -23t25.5 -16.5t28.5 -6.5q27 0 49.5 22.5t22.5 49.5v14q0 39 -34 57q-15 8 -31 8z
M335 288q0 -8 -5.5 -16.5t-13.5 -14t-17 -5.5h-21q-13 0 -21 8t-8 21v21q0 8 4 14.5t10.5 11.5t14 7.5t14.5 2.5q15 0 29 -10.5t14 -25.5v-14zM723 367q-30 0 -51 -23.5t-21 -55.5q0 -17 11.5 -34t30 -27.5t37.5 -10.5q27 0 49.5 22.5t22.5 49.5q0 40 -19.5 59.5t-59.5 19.5
zM737 252h-21q-13 0 -21 8t-8 21v21q0 13 11.5 24.5t24.5 11.5q50 0 50 -50q0 -12 -11.5 -24t-24.5 -12z" />
    <glyph glyph-name="uniE613" unicode="&#xe613;" 
d="M921 -61q-36 35 -77 76l-88 89q-48 47 -77 77q-7 6 -1 13q14 18 25 39q20 42 30 83q7 32 7 68q0 26 -4 52l-4 20q-2 10 -5 20t-6.5 20t-7.5 19q-34 77 -102 128q-24 19 -51 32.5t-56 21.5t-59 11q-69 7 -135 -16q-62 -21 -109 -63q-26 -23 -46.5 -50t-34.5 -58
q-15 -34 -22.5 -68t-6.5 -69q0 -29 3 -48q4 -23 10.5 -45.5t16.5 -43.5q32 -68 91 -116q37 -29 81 -47q31 -13 77 -21q14 -3 47 -3q8 0 17 0.5t19 1.5q37 4 70 16q50 18 82 43q8 7 15 -1l124 -124l117 -117q14 -13 31 -13t29 13q13 12 12.5 30t-12.5 30zM416 107
q-76 0 -140.5 37t-102 101.5t-36.5 141.5q1 116 82.5 196.5t201.5 79.5q54 -1 104.5 -23t88.5 -60t59.5 -92.5t19.5 -116.5q-3 -70 -39 -130.5t-99.5 -97t-138.5 -36.5z" />
    <glyph glyph-name="uniE614" unicode="&#xe614;" 
d="M704 -81h-384q-16 0 -30.5 8t-23 22t-8.5 30l-51 565q-1 15 9 27t26 14q6 0 11.5 -1.5t10.5 -4.5t9 -7t6.5 -9.5t2.5 -12.5l50 -556h360l36 418q0 10 6 18.5t15 12.5t19.5 3t18.5 -6.5t12.5 -15t3.5 -19.5l-37 -426q0 -25 -18.5 -42.5t-43.5 -17.5zM832 525h-654
q-15 0 -26 11t-11 26.5t11 26.5t26 11h654q15 0 26.5 -11t11.5 -26q0 -10 -5.5 -19t-14 -14t-18.5 -5zM632 597q0 -18 -16 -33t-44 -24t-61 -9q-24 0 -46.5 5.5t-39 14t-26 21t-9.5 25.5q0 28 35.5 47t85.5 19t85.5 -19t35.5 -47zM390 41q-10 0 -17 7t-8 16l-25 353
q-1 10 6 18t17 9q7 0 13 -3t10 -8.5t4 -12.5l25 -352q1 -7 -2 -13t-8.5 -9.5t-12.5 -4.5h-2zM511 41q-5 0 -9.5 2t-8 5.5t-5.5 8t-2 9.5v352q0 11 7.5 18.5t17.5 7.5q5 0 10 -2t8 -5.5t5 -8t2 -10.5v-352q0 -10 -7 -17.5t-18 -7.5zM632 41h-2q-10 1 -17 9t-6 18l25 352
q1 11 9 17.5t18 6.5q11 -1 17.5 -9t5.5 -18l-25 -353q0 -6 -3.5 -11.5t-9 -8.5t-12.5 -3z" />
    <glyph glyph-name="uniE615" unicode="&#xe615;" 
d="M512 715q-116 0 -214 -57.5t-155.5 -155.5t-57.5 -214t57.5 -214t155.5 -155.5t214 -57.5t214 57.5t155.5 155.5t57.5 214t-57.5 214t-155.5 155.5t-214 57.5zM467 137l-30 -30l-181 181l30 30l151 -151l301 302l30 -30z" />
    <glyph glyph-name="uniE616" unicode="&#xe616;" 
d="M922 461q-34 80 -95 142q-21 20 -43.5 37.5t-47 32t-51.5 25.5q-41 18 -84.5 26.5t-88.5 8.5q-91 0 -173 -35q-80 -33 -142 -95t-95 -142q-35 -82 -35 -172.5t35 -173.5q33 -80 95 -141.5t142 -95.5q82 -35 172.5 -35t173.5 35q40 17 75.5 41t66 54.5t54.5 66t41 75.5
q12 27 19.5 55.5t11.5 58t4 59.5q0 91 -35 173zM512 -147q-89 0 -169.5 34.5t-138.5 93t-92.5 139t-34.5 169t34.5 169t92.5 138.5t138.5 92.5t169.5 34.5q44 0 87 -9t82 -25t74 -40t64 -53.5t53 -64.5t40.5 -73.5t25.5 -81.5t9 -88q0 -59 -16 -115.5t-44 -104t-68 -87.5
t-87.5 -68t-104 -44t-115.5 -16z" />
    <glyph glyph-name="uniE617" unicode="&#xe617;" 
d="M57 285q0 -93 36.5 -178t97.5 -146.5t146 -97.5t178 -36t178 36t146.5 97.5t97.5 146.5t36 178t-36 178t-97.5 146t-146.5 97.5t-178 36.5t-178 -36.5t-146 -97.5t-97.5 -146t-36.5 -178z" />
    <glyph glyph-name="uniE618" unicode="&#xe618;" 
d="M511 736q-73 0 -141 -22.5t-123 -64t-96.5 -96.5t-64 -123t-22.5 -141t22.5 -141t64 -123t96.5 -96.5t123 -64t141 -22.5q91 0 174 35.5t142.5 95t95 142.5t35.5 174q0 73 -22.5 141t-64 123t-96.5 96.5t-123 64t-141 22.5zM732 297l-150 -163q-7 -7 -14 -10t-13 -3
t-10.5 2t-7.5 5q-2 2 -3.5 5.5t-2.5 6.5t-1.5 6.5t-0.5 5.5v5v66q-34 7 -61 1t-48.5 -18t-35.5 -27t-21.5 -24.5t-7.5 -10.5q-1 -3 -3.5 -7t-11 -10t-18.5 -4q-7 2 -11 7t-4 9l-1 5l1 6q0 42 8 78t21.5 62t30 47.5t36.5 35.5t37.5 24t36 16t30.5 9t22 4v54q0 3 0.5 6.5
t1.5 7t2.5 6t4.5 5t7 3.5q16 8 37 -18l150 -163q6 -7 6 -15.5t-6 -14.5z" />
    <glyph glyph-name="uniE619" unicode="&#xe619;" 
d="M586 747l322 -425h-182q1 -10 0.5 -27t-10 -66t-28.5 -93.5t-63.5 -99t-107 -93.5t-166.5 -65.5t-234 -26.5q36 17 75 39t98 68t100 96t64 122t6 146q-45 0 -191 -3z" />
    <glyph glyph-name="uniE61A" unicode="&#xe61a;" 
d="M510.5 750q-66.5 0 -127 -25.5t-104 -69.5t-69.5 -104t-26 -127q0 -77 35 -145q20 -40 49 -72l242 -354l242 354q30 32 50 72q34 68 34 145q0 67 -26 127t-69.5 104t-103.5 69.5t-126.5 25.5zM685 432q0 -72 -51.5 -123t-123.5 -51t-123 51t-51 123q0 47 23.5 87
t63.5 63.5t87 23.5q72 0 123.5 -51t51.5 -123z" />
    <glyph glyph-name="uniE61B" unicode="&#xe61b;" horiz-adv-x="1000" 
d="M913 639q-6 5 -13 8t-14 3t-14 -3t-12 -8l-372 -372q-7 -7 -9.5 -16.5t0 -19.5t9.5 -17q11 -11 26.5 -11t26.5 11l372 372q7 7 9.5 16.5t0 19t-9.5 17.5zM775 240q-10 0 -18.5 -5t-13.5 -13.5t-5 -18.5v-186q0 -15 -11 -26t-26 -11h-483q-10 0 -19 5t-13.5 13.5
t-4.5 18.5v595q0 10 4.5 18.5t13.5 13.5t19 5h371q8 0 15 3t12 8t7.5 12t2.5 14.5t-2.5 14.5t-7.5 12t-12 7.5t-15 2.5h-408q-31 0 -53 -21.5t-22 -52.5v-669q0 -31 22 -52.5t53 -21.5h557q20 0 37 10t27 27t10 37v223q0 16 -11 26.5t-26 10.5z" />
    <glyph glyph-name="uniE61C" unicode="&#xe61c;" 
d="M959 288q0 -91 -35.5 -174t-95 -142.5t-142.5 -95t-174 -35.5t-174 35.5t-142.5 95t-95 142.5t-35.5 174t35.5 174t95 142.5t142.5 95t174 35.5t174 -35.5t142.5 -95t95 -142.5t35.5 -174zM512 571q-77 0 -142.5 -37.5t-103 -103t-37.5 -142.5q0 -117 83 -200t200 -83
q46 0 89.5 14t78 40.5t61 61t40.5 78t14 89.5q0 117 -83 200t-200 83zM512 428q-38 0 -70.5 -18.5t-51 -51t-18.5 -70.5q0 -58 41 -99t99 -41t99 41t41 99t-41 99t-99 41z" />
    <glyph glyph-name="uniE61D" unicode="&#xe61d;" 
d="M677 607v62q0 16 -8.5 30.5t-24 22.5t-33.5 8h-198q-28 0 -47 -18t-19 -43v-62h-265v-61h99v-615q0 -25 19.5 -43t46.5 -18h530q27 0 46.5 18t19.5 43v615h99v61h-265zM413 669h198v-62h-198v62zM777 -69h-530v615h530v-615zM347 454h66v-430h-66v430zM479 454h66v-430
h-66v430zM611 454h66v-430h-66v430zM611 454z" />
    <glyph glyph-name="uniE61E" unicode="&#xe61e;" 
d="M930 706h-838q-38 0 -65 -27t-27 -65v-102h1022v102q0 25 -12.5 46t-33.5 33.5t-46 12.5zM0 -10q0 -38 27 -65t65 -27h838q38 0 65 27t27 65v385h-1022v-385zM836 125h76v-86h-76v86zM739 125h75v-86h-75v86zM645 125h76v-86h-76v86z" />
    <glyph glyph-name="uniE61F" unicode="&#xe61f;" 
d="M928 -212h-832q-20 0 -34 14t-14 34v832q0 20 14 34t34 14h80v-48q0 -40 28 -68t68 -28t68 28t28 68v48h48v-48q0 -40 28 -68t68 -28t68 28t28 68v48h48v-48q0 -40 28 -68t68 -28t68 28t28 68v48h80q20 0 34 -14t14 -34v-832q0 -20 -14 -34t-34 -14zM800 444h-576
q-20 0 -34 -14t-14 -34t14 -34t34 -14h576q20 0 34 14t14 34t-14 34t-34 14zM800 236h-576q-20 0 -34 -14t-14 -34t14 -34t34 -14h576q20 0 34 14t14 34t-14 34t-34 14zM808 28h-592q-17 0 -28.5 -11.5t-11.5 -28.5t11.5 -28.5t28.5 -11.5h592q17 0 28.5 11.5t11.5 28.5
t-11.5 28.5t-28.5 11.5zM752 620q-20 0 -34 14t-14 34v96q0 20 14 34t34 14t34 -14t14 -34v-96q0 -20 -14 -34t-34 -14zM512 620q-20 0 -34 14t-14 34v96q0 20 14 34t34 14t34 -14t14 -34v-96q0 -20 -14 -34t-34 -14zM272 620q-20 0 -34 14t-14 34v96q0 20 14 34t34 14
t34 -14t14 -34v-96q0 -20 -14 -34t-34 -14z" />
    <glyph glyph-name="uniE620" unicode="&#xe620;" 
d="M364 215l-98 164q-20 34 -28.5 60t-9.5 36t-1 41q0 121 84.5 205.5t206 84.5t206 -84.5t84.5 -205.5q-11 -96 -36 -140l-253 -419l-43 75q-8 15 -32 57.5t-40.5 69.5t-35.5 56h-4zM519 677q-53 0 -88.5 -35t-35.5 -88q0 -35 16.5 -63.5t44.5 -44.5t63 -16q53 0 88.5 35.5
t35.5 88.5t-35.5 88t-88.5 35zM514 -194q-69 0 -134 8.5t-123 26.5t-101.5 43.5t-68.5 62t-25 80.5q0 68 65 120t160 74l70 -124q-61 -10 -105.5 -29.5t-60.5 -35.5l-6 -5l6 -6q23 -28 108 -52.5t208 -27.5h15q121 0 205 25.5t112 54.5l5 6l-5 5q-15 14 -60 33.5t-107 31.5
l71 124q225 -59 225 -194q0 -54 -38.5 -97.5t-103 -69.5t-143.5 -40t-166 -14h-5h2z" />
    <glyph glyph-name="uniE621" unicode="&#xe621;" 
d="M509 695q-57 0 -102.5 -3t-93.5 -12t-83.5 -24t-68 -41t-53 -61.5t-32.5 -85.5t-12 -113q0 -135 53 -209t152 -104v-135l111 113q30 -3 62 -4.5t69 -1.5q50 0 90 2.5t83.5 9t77 18t65.5 29t55 43t40.5 59.5t26.5 79.5t9 100.5q0 63 -12.5 113t-33 85.5t-53.5 61.5t-69 41
t-84 24t-93.5 12t-103.5 3zM338 301q-23 0 -38.5 16t-15.5 38t15.5 37.5t38.5 15.5q11 0 20.5 -4t17 -11t11.5 -17t4 -21q0 -34 -30 -49q-12 -5 -23 -5zM509 301q-22 0 -37.5 16t-15.5 38t15.5 37.5t38 15.5t38 -15.5t15.5 -37.5t-15.5 -38t-38.5 -16zM681 301
q-22 0 -37.5 16t-15.5 38q0 14 7 26.5t19.5 19.5t26.5 7q22 0 38 -15.5t16 -37.5q0 -15 -7 -27.5t-19.5 -19.5t-27.5 -7zM681 301z" />
    <glyph glyph-name="uniE622" unicode="&#xe622;" 
d="M1019 442q5 -36 -11.5 -68.5t-53.5 -53.5v-341q0 -29 -10 -53t-28 -41.5t-41 -27.5t-49 -10h-575q-28 0 -51.5 10t-41.5 27.5t-27.5 41.5t-9.5 53v341q-36 22 -53.5 54t-11.5 68l52 247q5 25 24 41.5t44 16.5h205h317h198q31 0 51 -16.5t25 -41.5zM889 291q-15 -3 -30 -3
q-33 0 -61.5 11.5t-50.5 32t-35 48.5t-14 59q-1 -31 -13 -59t-33.5 -48.5t-50.5 -32t-61.5 -11.5t-61.5 12t-50.5 33t-34 49.5t-12.5 59.5q0 -31 -13.5 -59.5t-36 -49.5t-52.5 -33t-63 -12q-15 0 -31 3v-119q0 -12 6 -24.5t15 -21.5t20.5 -15t22.5 -6h577q11 0 22 5.5
t20.5 13.5t15 20t5.5 24v123z" />
    <glyph glyph-name="uniE623" unicode="&#xe623;" 
d="M148 6l-97 90l452 495l453 -495l-97 -90l-356 389z" />
    <glyph glyph-name="uniE624" unicode="&#xe624;" 
d="M1024 -104q0 -12 -11.5 -32.5t-34.5 -39.5t-56.5 -33.5t-77.5 -14.5h-663q-45 0 -78.5 14.5t-56.5 33.5t-34.5 39.5t-11.5 32.5l90 482q0 26 18 43.5t43 17.5q7 -3 16 -6q8 -2 19 -5l25 -7v80q0 61 23.5 116t64.5 95.5t96 64t117 23.5t117 -23.5t96 -64t64.5 -95.5
t23.5 -116v-80l25 7q11 3 19 5q9 3 16 6q26 0 43.5 -17.5t17.5 -43.5zM241 228q25 0 42.5 17t17.5 43q0 17 -8 30.5t-22 21.5v-52h-60v52q-30 -16 -30 -52q0 -26 17.5 -43t42.5 -17zM271 407q51 -11 113 -20t128 -9t128 9t114 20v85q0 51 -19 96t-52 79t-77 53.5t-94 19.5
t-93.5 -19.5t-76.5 -53.5t-52 -79t-19 -96v-85zM783 228q26 0 43.5 17t17.5 43q0 17 -8.5 30.5t-22.5 21.5v-52h-59v52q-15 -8 -23 -21.5t-8 -30.5q0 -26 18 -43t42 -17z" />
    <glyph glyph-name="uniE625" unicode="&#xe625;" 
d="M61 438q0 27 9 39q9 11 39 11h126v-501h-54h-23h-20h-29q-26 -1 -37 10q-5 5 -8 14.5t-3 23.5v144q0 11 4 17q0 1 1.5 2t3.5 2l4 2q2 1 5 1q2 0 4.5 1t6.5 2q7 3 13 10q7 7 12 17q5 11 5 25q0 24 -12 37q-4 4 -8.5 7t-9 5t-8.5 3q-11 1 -16 6t-5 16v106v0zM143 533v12v1
v1v12q0 10 3.5 19.5t11.5 17.5q15 18 33 18h136v-81h-184v0zM944 316q-8 -3 -11 -9q-4 -7 -4 -14.5t4 -15.5q2 -4 4.5 -6.5t6.5 -4.5q8 -3 13 -12q4 -9 4.5 -18.5t-2.5 -19.5q-3 -9 -9 -13q-10 -6 -14.5 -12.5t-4.5 -14.5q0 -15 19 -30q2 -1 4 -4t4 -7q3 -8 3 -16
q0 -3 -0.5 -5.5t-1.5 -4.5l-2 -4q-4 -6 -14 -6h-53h-4q-2 0 -2 1t1 3l5 6q2 2 3 3.5t2 3.5q5 14 0 24t-17 17q-4 2 -6.5 5.5t-4.5 7.5q-3 8 -2.5 17t3.5 16t8 10l4 2q2 1 3.5 2.5t2.5 3t2 3.5q4 8 4 18q0 8 -3 16t-9 11q-4 2 -7 5t-5 7q-1 2 -2 5t-1.5 6t-0.5 7q0 5 1 9.5
t3 9.5q1 3 3 6t4 5.5t5 4.5q6 4 10 11q2 3 3 6.5t2 8.5q0 7 -3 15q-4 8 -13 13t-14 14q-4 10 -4 20t4 19q5 9 12 14q17 9 19 25q1 15 -3 28q-3 10 -12 18q-8 8 -22 8h-472v80h553q4 0 7 -1.5t5.5 -4t4 -5.5t2.5 -7q1 -7 -1.5 -14.5t-9.5 -12.5q-6 -5 -10 -13l-2 -4l-2 -4v-4
q-1 -2 -1 -4v-6q0 -3 0.5 -5.5t1.5 -5.5q2 -5 4.5 -8t6.5 -5q11 -6 16.5 -16.5t5.5 -20.5q0 -6 -1.5 -10.5t-4.5 -9.5q-1 -3 -3.5 -5.5t-5 -4.5t-6.5 -3q-11 -4 -15.5 -11.5t-5.5 -16.5q0 -9 4 -18q4 -8 14 -14q2 -1 3.5 -2t3 -2.5t2.5 -3t2 -2.5t2 -3t2 -3q2 -5 3 -10
t0 -10q0 -10 -5 -19q-1 -3 -3 -5t-4.5 -3t-5.5 -1v0zM816 331q-5 -2 -10 -5t-8 -7q-6 -8 -7 -18q0 -8 5 -18q6 -9 17 -13q4 -2 8 -5t6 -7q5 -8 5.5 -17t-3.5 -17q-2 -4 -5 -7t-7 -5q-12 -6 -18.5 -13t-6.5 -16q-1 -8 4 -15t15 -12q9 -4 14 -13q2 -2 3 -5l2 -6q1 -3 1 -7
t-1 -8.5t-3 -8t-5 -6.5t-8 -4q-5 -2 -10 -4.5t-8 -6.5q-1 -2 -2.5 -4t-2 -4.5t-1 -4.5t-1.5 -4q0 -9 5 -18q2 -3 3.5 -5t4 -4t5 -3.5t5.5 -2.5q7 -4 10.5 -12.5t2.5 -17.5q-1 -8 -5 -14q-4 -7 -13 -7h-514v502h520q8 0 13 -6q1 -3 2 -5t2 -4.5t1 -5.5q0 -8 -4 -16t-12.5 -11
t-14.5 -10q-5 -7 -6 -16q-1 -8 4 -16t16 -12q5 -2 8.5 -5t6.5 -7q2 -3 3 -5.5t2 -5.5t1 -6q0 -4 -1 -8t-3 -8q-5 -7 -15 -10v0zM579 263q-4 0 -10 1q-5 1 -2 6q0 1 0.5 2t1.5 2l3 5q2 3 4 5q9 14 19 26q2 3 6 8.5t7 9.5l6 8q9 13 11 15q2 4 0.5 8.5t-6.5 10.5q-2 2 -8 6
q-3 2 -5.5 3.5t-5.5 2.5q-8 3 -11 1q-4 -2 -9 -9l-9 -15q-3 -3 -5.5 -6.5t-6.5 -10t-5 -7.5l-8 -12l-8 -12l-9 -12q-2 -5 -7 -4q-3 1 -4.5 2.5t-2.5 3.5q-1 1 -3.5 4t-5.5 7q-9 10 -17 22q-6 7 -17 22l-12 15q-9 17 -18 11q-4 -2 -7 -4t-5.5 -4.5t-5 -4.5t-5.5 -3
q-10 -7 -3 -18q18 -22 30 -37q14 -19 20 -28q10 -12 12 -15t-1 -3q-1 -1 -3 -1h-12h-14q-10 -1 -17 0q-4 0 -7.5 -1t-5.5 -3q-5 -4 -3 -10q1 -4 1 -12v-12q1 -4 3 -5q3 -1 7 -1h57q12 0 12 -5v-19q0 -5 -2 -5h-5h-10h-20h-19h-12q-6 1 -8 -3q-1 -2 -1.5 -4t-1.5 -5
q-1 -5 0 -9t1 -8q0 -13 13 -13h59q2 0 3.5 -0.5t2.5 -0.5q1 -2 1 -7q1 -5 0 -18v-5v-6v-4v-2q0 -6 3 -8.5t9 -2.5h32q8 0 8 5v7v33q0 10 9 10h9q8 0 15 1h16h13q14 0 14 10v22q0 9 -10 9h-57q-5 -1 -7.5 0t-2.5 4q0 4 -1 8v8q0 4 3 6q2 1 4 1.5t4 0.5h58q5 0 7.5 2t2.5 5v24
q0 4 -4 8q-2 2 -4 3t-4 1h-34v0zM579 263z" />
    <glyph glyph-name="uniE626" unicode="&#xe626;" 
d="M512 748q-73 0 -141.5 -22.5t-123.5 -64t-96.5 -96.5t-64 -123.5t-22.5 -141.5q0 -91 35.5 -174t95.5 -143t143 -95.5t174 -35.5t174 35.5t143 95.5t95.5 143t35.5 174q0 61 -16 119t-45 107t-70.5 90.5t-90.5 70.5t-107 45t-119 16zM512 -5q-25 0 -43 17.5t-18 43
t18 43.5t43 18t43 -18t18 -43q0 -17 -8 -31t-22 -22t-31 -8zM573 239q0 -25 -18 -43t-43 -18t-43 18t-18 43v285q0 25 18 43t43 18t43 -18t18 -43v-285z" />
  </font>
</defs>
</svg>
